<svg width="700" height="700" viewBox="0 0 700 700" fill="none" xmlns="http://www.w3.org/2000/svg">
<path d="M510.048 14C538.946 14 567.845 14 597.619 14C597.619 23.6329 597.619 33.2657 597.619 43.1905C587.986 43.1905 578.353 43.1905 568.429 43.1905C568.429 72.0891 568.429 100.988 568.429 130.762C578.061 130.762 587.694 130.762 597.619 130.762C597.619 159.66 597.619 188.559 597.619 218.333C607.252 218.333 616.885 218.333 626.81 218.333C626.81 237.599 626.81 256.865 626.81 276.714C636.442 276.714 646.075 276.714 656 276.714C656 334.511 656 392.309 656 451.857C646.367 451.857 636.734 451.857 626.81 451.857C626.81 480.756 626.81 509.654 626.81 539.429C617.177 539.429 607.544 539.429 597.619 539.429C597.619 549.061 597.619 558.694 597.619 568.619C587.986 568.619 578.353 568.619 568.429 568.619C568.429 578.252 568.429 587.885 568.429 597.81C558.796 597.81 549.163 597.81 539.238 597.81C539.238 607.442 539.238 617.075 539.238 627C529.605 627 519.972 627 510.048 627C510.048 636.633 510.048 646.266 510.048 656.191C481.149 656.191 452.25 656.191 422.476 656.191C422.476 665.823 422.476 675.456 422.476 685.381C374.312 685.381 326.148 685.381 276.524 685.381C276.524 675.748 276.524 666.115 276.524 656.191C247.625 656.191 218.727 656.191 188.952 656.191C188.952 646.558 188.952 636.925 188.952 627C179.32 627 169.687 627 159.762 627C159.762 617.367 159.762 607.734 159.762 597.81C150.129 597.81 140.496 597.81 130.571 597.81C130.571 588.177 130.571 578.544 130.571 568.619C120.939 568.619 111.306 568.619 101.381 568.619C101.381 558.986 101.381 549.353 101.381 539.429C139.912 539.429 178.444 539.429 218.143 539.429C218.143 549.061 218.143 558.694 218.143 568.619C266.307 568.619 314.471 568.619 364.095 568.619C364.095 578.252 364.095 587.885 364.095 597.81C354.462 597.81 344.83 597.81 334.905 597.81C334.905 607.442 334.905 617.075 334.905 627C354.17 627 373.436 627 393.286 627C393.286 617.367 393.286 607.734 393.286 597.81C412.551 597.81 431.817 597.81 451.667 597.81C451.667 588.177 451.667 578.544 451.667 568.619C461.3 568.619 470.932 568.619 480.857 568.619C480.857 558.986 480.857 549.353 480.857 539.429C490.49 539.429 500.123 539.429 510.048 539.429C510.048 510.53 510.048 481.631 510.048 451.857C490.782 451.857 471.516 451.857 451.667 451.857C451.667 461.49 451.667 471.123 451.667 481.048C393.87 481.048 336.072 481.048 276.524 481.048C276.524 471.415 276.524 461.782 276.524 451.857C286.157 451.857 295.79 451.857 305.714 451.857C305.714 442.224 305.714 432.591 305.714 422.667C315.347 422.667 324.98 422.667 334.905 422.667C334.905 413.034 334.905 403.401 334.905 393.476C344.538 393.476 354.17 393.476 364.095 393.476C364.095 383.843 364.095 374.21 364.095 364.286C373.728 364.286 383.361 364.286 393.286 364.286C393.286 345.02 393.286 325.754 393.286 305.905C316.223 305.905 239.16 305.905 159.762 305.905C159.762 315.538 159.762 325.17 159.762 335.095C150.129 335.095 140.496 335.095 130.571 335.095C130.571 344.728 130.571 354.361 130.571 364.286C159.47 364.286 188.369 364.286 218.143 364.286C218.143 373.919 218.143 383.551 218.143 393.476C160.346 393.476 102.549 393.476 43 393.476C43 354.945 43 316.413 43 276.714C52.6329 276.714 62.2657 276.714 72.1905 276.714C72.1905 257.449 72.1905 238.183 72.1905 218.333C81.8233 218.333 91.4562 218.333 101.381 218.333C101.381 199.068 101.381 179.802 101.381 159.952C111.014 159.952 120.647 159.952 130.571 159.952C130.571 150.32 130.571 140.687 130.571 130.762C149.837 130.762 169.103 130.762 188.952 130.762C188.952 121.129 188.952 111.496 188.952 101.571C208.218 101.571 227.484 101.571 247.333 101.571C247.333 91.9386 247.333 82.3057 247.333 72.381C314.763 72.381 382.193 72.381 451.667 72.381C451.667 62.7481 451.667 53.1152 451.667 43.1905C470.932 43.1905 490.198 43.1905 510.048 43.1905C510.048 33.5576 510.048 23.9248 510.048 14Z" fill="black"/>
<path d="M276.524 159.952C305.422 159.952 334.321 159.952 364.095 159.952C364.095 169.585 364.095 179.218 364.095 189.143C354.462 189.143 344.83 189.143 334.905 189.143C334.905 198.776 334.905 208.409 334.905 218.333C325.272 218.333 315.639 218.333 305.714 218.333C305.714 227.966 305.714 237.599 305.714 247.524C286.449 247.524 267.183 247.524 247.333 247.524C247.333 257.157 247.333 266.79 247.333 276.714C228.068 276.714 208.802 276.714 188.952 276.714C188.952 267.081 188.952 257.449 188.952 247.524C198.585 247.524 208.218 247.524 218.143 247.524C218.143 228.258 218.143 208.992 218.143 189.143C237.409 189.143 256.674 189.143 276.524 189.143C276.524 179.51 276.524 169.877 276.524 159.952Z" fill="white"/>
<path d="M364.095 539.429C373.728 539.429 383.361 539.429 393.286 539.429C393.286 549.062 393.286 558.694 393.286 568.619C383.653 568.619 374.02 568.619 364.095 568.619C364.095 558.986 364.095 549.353 364.095 539.429Z" fill="black"/>
</svg>
