<svg width="160" height="160" viewBox="0 0 160 160" fill="none" xmlns="http://www.w3.org/2000/svg">
<path d="M116.348 44.89C116.348 57.4382 106.368 67.8147 93.9551 68.5386C93.4683 68.5386 92.9815 68.5386 92.4947 68.5386C88.3569 68.5386 84.2192 67.3321 80.8117 65.4015C73.5098 61.2992 68.6418 53.5772 68.6418 44.6487C68.6418 38.6158 70.8324 33.0656 74.7268 28.9633C79.1079 24.1371 85.4362 21 92.4947 21C101.744 21 109.776 26.3089 113.67 34.0309C115.374 37.4093 116.348 41.029 116.348 44.89Z" fill="#F1F3FA" stroke="#D5DAE5" stroke-width="2" stroke-miterlimit="10"/>
<path opacity="0.1" d="M116.138 44.89C116.138 57.4383 106.159 67.8147 93.7458 68.5386C89.1213 67.8147 84.7402 66.6081 80.6024 65.6429C73.3005 61.5406 68.4326 53.8186 68.4326 44.89C68.4326 38.8572 70.6232 33.307 74.5175 29.2047C82.5496 28.9634 91.7987 29.6873 101.291 31.3765C105.672 32.1004 109.81 33.0657 113.704 34.0309C115.165 37.4093 116.138 41.029 116.138 44.89Z" fill="#AAB2C5"/>
<path d="M145.241 60.8607C147.078 50.6265 124.428 38.0711 94.6518 32.8175C64.8752 27.5638 39.2474 31.6014 37.4104 41.8356C35.5734 52.0698 58.2229 64.6251 87.9995 69.8788C117.776 75.1324 143.404 71.0949 145.241 60.8607Z" fill="#F1F3FA" stroke="#D5DAE5" stroke-width="2" stroke-miterlimit="10"/>
<path d="M87.0609 38.661C87.1964 36.9336 84.4814 35.3156 80.9969 35.047C77.5124 34.7784 74.5778 35.9609 74.4423 37.6883C74.3068 39.4156 77.0218 41.0337 80.5063 41.3023C83.9909 41.5709 86.9255 40.3883 87.0609 38.661Z" fill="#D5DAE5"/>
<path d="M56.4352 43.0974C59.7855 42.1112 62.0984 39.9654 61.601 38.3046C61.1037 36.6438 57.9845 36.0969 54.6342 37.083C51.2839 38.0692 48.971 40.215 49.4684 41.8758C49.9657 43.5367 53.0849 44.0836 56.4352 43.0974Z" fill="#D5DAE5"/>
<path d="M111.676 45.0099C111.982 43.3042 109.441 41.4293 106 40.8222C102.559 40.2152 99.5217 41.1058 99.2155 42.8115C98.9093 44.5172 101.45 46.392 104.891 46.9991C108.332 47.6062 111.37 46.7156 111.676 45.0099Z" fill="#D5DAE5"/>
<path d="M130.153 57.6277C130.954 56.0878 129.085 53.5521 125.979 51.964C122.873 50.376 119.705 50.3369 118.904 51.8768C118.103 53.4167 119.972 55.9524 123.079 57.5405C126.185 59.1285 129.353 59.1676 130.153 57.6277Z" fill="#D5DAE5"/>
<mask id="mask0_6008_1324" style="mask-type:alpha" maskUnits="userSpaceOnUse" x="32" y="53" width="93" height="71">
<path d="M88.2904 53.4015L65.4111 53.1602L32.8281 113.764L124.281 123.382L114.09 61.6061L88.2904 53.4015Z" fill="url(#paint0_linear_6008_1324)"/>
</mask>
<g mask="url(#mask0_6008_1324)">
<path opacity="0.22" d="M88.2904 53.4015L65.4111 53.1602L32.8281 113.764L124.281 123.382L114.09 61.6061L88.2904 53.4015Z" fill="#989FB0"/>
</g>
<path d="M136.235 139.637H19.1619C22.326 136.801 26.9505 133.966 32.3053 131.839C35.226 130.775 38.6336 129.358 42.0411 128.649C52.2637 125.813 64.677 124.041 77.8204 124.041C93.6411 124.041 108.245 126.522 119.441 130.421C123.335 131.839 126.743 133.257 129.664 135.029C132.341 136.447 134.532 137.865 136.235 139.637Z" fill="#F1F3FA" stroke="#D5DAE5" stroke-width="2" stroke-miterlimit="10"/>
<path d="M43.2218 131.58C43.3751 133.019 40.8662 134.743 37.9618 135.052C35.0575 135.361 32.5094 134.419 32.1141 133.006C34.9417 131.976 38.2279 130.656 41.5651 129.815C42.5843 130.192 43.1451 130.86 43.2218 131.58Z" fill="#D5DAE5"/>
<path d="M64.1901 129.349C68.0884 129.349 71.2486 128.593 71.2486 127.66C71.2486 126.727 68.0884 125.971 64.1901 125.971C60.2918 125.971 57.1316 126.727 57.1316 127.66C57.1316 128.593 60.2918 129.349 64.1901 129.349Z" fill="#D5DAE5"/>
<path d="M102.237 129.211C102.317 128.014 99.2287 126.836 95.339 126.581C91.4493 126.325 88.2312 127.088 88.1512 128.285C88.0712 129.482 91.1596 130.659 95.0493 130.915C98.939 131.171 102.157 130.407 102.237 129.211Z" fill="#D5DAE5"/>
<path d="M128.41 135.443C127.443 135.332 126.281 135.369 124.858 134.962C121.017 134.276 118.012 132.715 118.15 131.516C118.178 131.277 118.178 131.277 118.447 131.065C122.205 132.47 125.621 133.829 128.41 135.443Z" fill="#D5DAE5"/>
<path d="M113.945 62.36C114.769 57.7677 104.495 52.1142 90.996 49.7326C77.4972 47.3509 65.8861 49.143 65.0618 53.7353C64.2376 58.3275 74.5122 63.981 88.0109 66.3626C101.51 68.7443 113.121 66.9522 113.945 62.36Z" fill="#D5DAE5" stroke="#D5DAE5" stroke-width="2" stroke-miterlimit="10"/>
<path d="M26.5418 84.5999C26.5418 84.5999 18.1342 86.7345 20.682 88.4423C23.2297 90.0646 29.2595 92.8824 34.9495 91.0039C40.6395 89.1254 34.9495 86.4784 35.0344 86.4784C35.1193 86.4784 26.5418 84.5999 26.5418 84.5999Z" fill="#D5DAE5"/>
<path d="M16.2656 83.9166C19.3229 84.8559 28.7497 83.3189 34.7794 79.3911C39.5353 85.2828 41.3187 86.8198 43.0172 86.9905C40.3845 89.6375 31.6372 93.9069 26.7115 88.3567C20.9365 92.0284 16.2656 83.9166 16.2656 83.9166Z" fill="#F1F3FA"/>
<path d="M117.25 91.6028C120.478 91.7735 129.225 87.8457 133.981 82.5518C140.096 87.0773 142.134 88.1019 143.917 87.8457C141.964 91.0904 136.019 98.1776 127.611 98.6899C121.497 95.1036 117.25 91.6028 117.25 91.6028Z" fill="#F1F3FA"/>
<path d="M89.2823 91.7083C88.6438 88.5403 82.6609 81.0471 76.3491 77.7599C79.2089 70.7107 79.6935 68.4815 79.0012 66.8181C82.6301 67.9016 90.9747 71.8936 93.5652 79.9086C91.6151 86.7238 89.2823 91.7083 89.2823 91.7083Z" fill="white"/>
<path d="M155.152 139.637H147.761H14.5479H5" stroke="#D5DAE5" stroke-width="2" stroke-miterlimit="10" stroke-linecap="round" stroke-linejoin="round"/>
<path d="M60.8354 120.249V125.075H57.9147V129.66H52.3165V125.075H40.1467V119.525L51.343 104.081H57.6713V120.249H60.8354ZM52.5599 110.355L45.5014 120.249H52.5599V110.355Z" fill="white" stroke="#D5DAE5" stroke-width="2" stroke-miterlimit="10" stroke-linejoin="round"/>
<path d="M76.3598 130.143C70.5183 130.143 65.407 125.075 65.407 116.871C65.407 108.666 70.5183 103.598 76.3598 103.598C82.2013 103.598 87.3126 108.666 87.3126 116.871C87.556 124.834 82.4447 130.143 76.3598 130.143ZM76.3598 125.075C79.0372 125.075 81.9579 122.421 81.9579 116.629C81.9579 111.079 79.2806 108.183 76.3598 108.183C73.6825 108.183 70.7617 110.838 70.7617 116.629C71.0051 122.421 73.6825 125.075 76.3598 125.075Z" fill="white" stroke="#D5DAE5" stroke-width="2" stroke-miterlimit="10" stroke-linejoin="round"/>
<path d="M113.06 120.249V125.075H110.139V129.66H104.541V125.075H92.3713V119.525L103.568 104.081H109.896V120.249H113.06ZM104.541 110.355L97.4827 120.249H104.541V110.355Z" fill="white" stroke="#D5DAE5" stroke-width="2" stroke-miterlimit="10" stroke-linejoin="round"/>
<defs>
<linearGradient id="paint0_linear_6008_1324" x1="78.5545" y1="53.1602" x2="78.5545" y2="123.382" gradientUnits="userSpaceOnUse">
<stop stop-color="white"/>
<stop offset="1" stop-color="white" stop-opacity="0"/>
</linearGradient>
</defs>
</svg>
