<svg width="104" height="104" viewBox="0 0 104 104" fill="none" xmlns="http://www.w3.org/2000/svg">
<path d="M102.4 51.8C102.4 66 96.6 78.8 87.3 88C78.2 97.1 65.6 102.6 51.7 102.6C37.9 102.6 25.3 97 16.1 88C6.8 78.8 1 66 1 51.8C1 23.7 23.7 1 51.7 1C79.7 1 102.4 23.8 102.4 51.8Z" fill="#F1F3FA" stroke="#D5DAE5" stroke-width="2" stroke-miterlimit="10"/>
<path d="M92.5489 28.1938C91.1809 26.2802 89.1288 26.4503 88.402 28.7892C86.7775 33.9771 81.6901 35.8907 78.5693 36.3585C76.7737 23.0484 65.3164 12.8 51.4651 12.8C37.6565 12.8 26.2419 23.0059 24.4036 36.2309C21.24 35.6356 16.6229 33.6794 15.0839 28.7466C14.3571 26.4078 12.3051 26.2802 10.937 28.1513C8.1582 31.9785 9.31248 36.8688 11.0225 40.866C13.5448 46.947 18.4185 51.2845 24.1471 54.2186C24.0189 61.4052 23.5058 67.2736 21.4965 74.8429C20.8125 77.4369 20.214 79.5631 19.6582 80.9664C19.2735 81.9444 19.017 82.9225 19.6155 83.9005C20.6415 85.559 22.6508 86.0693 24.4891 86.367C26.1992 86.6646 27.6527 86.7922 28.8497 86.8347C31.7568 86.9198 33.0393 86.4945 33.0393 86.4945C33.0393 86.4945 33.2531 86.8347 33.8089 87.3025C35.3907 88.7058 39.794 91.4273 49.7123 91.0446C62.0674 90.5769 66.8127 89.3862 68.993 87.5151C69.164 87.345 69.335 87.2174 69.4633 87.0473C70.8313 87.0473 72.0711 87.0899 73.1826 87.0899C77.073 87.1324 79.8518 87.2174 82.0749 86.4095C83.8277 85.7716 84.9392 83.7304 83.8277 81.5617C80.4931 75.013 78.783 67.7839 78.783 60.4272V54.4738C84.7254 51.5396 89.8556 47.1596 92.4634 40.866C94.1734 36.8688 95.3277 31.9785 92.5489 28.1938Z" fill="white" stroke="#D5DAE5" stroke-width="2" stroke-miterlimit="10" stroke-linejoin="round"/>
<path d="M73.2249 87.0046C72.0706 87.0046 70.8308 86.9621 69.5055 86.9621C69.3773 87.1322 69.2063 87.3023 69.0353 87.4299C67.7955 81.9443 66.7267 76.3311 66.4702 69.4421C68.223 75.353 70.4461 82.327 73.2249 87.0046Z" fill="#D5DAE5"/>
<path d="M33.8083 87.26C33.2525 86.7922 33.0387 86.452 33.0387 86.452C33.0387 86.452 31.7562 86.9198 28.8491 86.7922C31.2859 82.3272 33.4662 73.9499 33.2097 68.762C33.5945 77.9047 33.7228 83.6454 33.8083 87.26Z" fill="#D5DAE5"/>
<path d="M41.3326 43.7575C43.3631 43.7575 45.0092 42.1202 45.0092 40.1004C45.0092 38.0807 43.3631 36.4434 41.3326 36.4434C39.3021 36.4434 37.656 38.0807 37.656 40.1004C37.656 42.1202 39.3021 43.7575 41.3326 43.7575Z" fill="#AAB2C5"/>
<path d="M59.7156 45.6711C62.8086 45.6711 65.316 43.1771 65.316 40.1005C65.316 37.0239 62.8086 34.5298 59.7156 34.5298C56.6226 34.5298 54.1152 37.0239 54.1152 40.1005C54.1152 43.1771 56.6226 45.6711 59.7156 45.6711Z" fill="#AAB2C5"/>
<path d="M61.169 50.8167C61.169 52.22 56.2954 53.3681 50.3102 53.3681C44.2823 53.3681 39.4087 52.22 39.4087 50.8167H61.169Z" fill="#AAB2C5"/>
<path d="M52.8327 63.0635C50.0539 63.0635 47.8308 60.8097 47.8308 58.0882V52.1348H57.8773V58.0882C57.8773 60.8097 55.6115 63.0635 52.8327 63.0635Z" fill="#AAB2C5"/>
<path opacity="0.3" d="M51.4646 102.314C67.5435 102.314 80.5781 99.8004 80.5781 96.7004C80.5781 93.6003 67.5435 91.0872 51.4646 91.0872C35.3856 91.0872 22.3511 93.6003 22.3511 96.7004C22.3511 99.8004 35.3856 102.314 51.4646 102.314Z" fill="#AAB2C5"/>
</svg>
