<svg width="700" height="700" viewBox="0 0 700 700" fill="none" xmlns="http://www.w3.org/2000/svg">
<path d="M364.095 539.429H393.286V568.619H364.095L364.095 539.429Z" fill="currentColor"/>
<path d="M597.619 43.1904H568.429V130.762H597.619V218.333H626.81V276.714H656V451.857H626.81V539.429H597.619V568.619H568.429V597.81H539.238V627H510.048V656.19H422.477V685.381H276.523V656.19H188.952V627H159.762V597.81H130.571V568.619H101.381V539.429H218.143V568.619H364.096V597.81H334.904V627H393.286V597.81H451.667V568.619H480.857V539.429H510.048V451.857H451.667V481.048H276.523V451.857H305.714V422.667H334.904V393.477H364.096V364.286H393.286V305.905H159.762V335.096H130.571V364.286H218.143V393.477H43V276.714H72.1904V218.333H101.381V159.952H130.571V130.762H188.952V101.571H247.333V72.3809H451.667V43.1904H510.048V14H597.619V43.1904ZM276.523 159.952V189.143H218.143V247.523H188.952V276.714H247.333V247.523H305.714V218.333H334.904V189.143H364.096V159.952H276.523Z" fill="currentColor"/>
</svg>
